<svg xmlns="http://www.w3.org/2000/svg" xmlns:xlink="http://www.w3.org/1999/xlink" width="500" zoomAndPan="magnify" viewBox="0 0 375 374.999991" height="500" preserveAspectRatio="xMidYMid meet" version="1.0"><defs><clipPath id="5fa155421b"><path d="M 7.597656 7.597656 L 368.347656 7.597656 L 368.347656 368.347656 L 7.597656 368.347656 Z M 7.597656 7.597656 " clip-rule="nonzero"/></clipPath></defs><g clip-path="url(#5fa155421b)"><path fill="#606060" d="M 286.324219 7.78125 L 90.046875 7.78125 C 88.699219 7.78125 87.355469 7.816406 86.011719 7.882812 C 84.667969 7.953125 83.324219 8.050781 81.984375 8.1875 C 80.644531 8.320312 79.3125 8.484375 77.980469 8.683594 C 76.648438 8.882812 75.324219 9.113281 74.003906 9.378906 C 72.683594 9.640625 71.371094 9.9375 70.066406 10.265625 C 68.761719 10.59375 67.464844 10.953125 66.175781 11.34375 C 64.886719 11.738281 63.609375 12.160156 62.34375 12.613281 C 61.078125 13.070312 59.820312 13.554688 58.578125 14.070312 C 57.335938 14.585938 56.105469 15.132812 54.890625 15.707031 C 53.671875 16.285156 52.472656 16.890625 51.285156 17.523438 C 50.097656 18.160156 48.925781 18.824219 47.773438 19.515625 C 46.621094 20.207031 45.484375 20.929688 44.363281 21.675781 C 43.246094 22.425781 42.144531 23.199219 41.0625 24 C 39.984375 24.804688 38.921875 25.632812 37.882812 26.484375 C 36.84375 27.339844 35.824219 28.21875 34.828125 29.121094 C 33.828125 30.027344 32.855469 30.953125 31.902344 31.90625 C 30.949219 32.859375 30.023438 33.832031 29.121094 34.828125 C 28.214844 35.828125 27.335938 36.84375 26.484375 37.886719 C 25.628906 38.925781 24.800781 39.988281 24 41.066406 C 23.195312 42.148438 22.421875 43.25 21.671875 44.367188 C 20.925781 45.484375 20.207031 46.621094 19.511719 47.777344 C 18.820312 48.929688 18.15625 50.101562 17.523438 51.289062 C 16.886719 52.476562 16.28125 53.675781 15.707031 54.894531 C 15.128906 56.109375 14.582031 57.339844 14.066406 58.582031 C 13.550781 59.824219 13.066406 61.082031 12.613281 62.347656 C 12.160156 63.613281 11.734375 64.890625 11.34375 66.179688 C 10.953125 67.46875 10.59375 68.765625 10.265625 70.070312 C 9.9375 71.375 9.640625 72.6875 9.375 74.007812 C 9.113281 75.328125 8.882812 76.652344 8.683594 77.984375 C 8.484375 79.316406 8.320312 80.652344 8.183594 81.988281 C 8.050781 83.328125 7.953125 84.671875 7.882812 86.015625 C 7.816406 87.359375 7.78125 88.703125 7.78125 90.050781 L 7.78125 286.320312 C 7.78125 287.667969 7.816406 289.011719 7.882812 290.355469 C 7.953125 291.699219 8.050781 293.042969 8.183594 294.382812 C 8.320312 295.71875 8.484375 297.054688 8.683594 298.386719 C 8.882812 299.71875 9.113281 301.042969 9.375 302.363281 C 9.640625 303.683594 9.9375 304.996094 10.265625 306.300781 C 10.59375 307.605469 10.953125 308.902344 11.34375 310.191406 C 11.734375 311.480469 12.160156 312.757812 12.613281 314.023438 C 13.066406 315.289062 13.550781 316.546875 14.066406 317.789062 C 14.582031 319.03125 15.128906 320.261719 15.707031 321.476562 C 16.28125 322.695312 16.886719 323.894531 17.523438 325.082031 C 18.15625 326.269531 18.820312 327.441406 19.511719 328.59375 C 20.207031 329.75 20.925781 330.886719 21.671875 332.003906 C 22.421875 333.121094 23.195312 334.222656 24 335.304688 C 24.800781 336.382812 25.628906 337.445312 26.484375 338.484375 C 27.335938 339.527344 28.214844 340.542969 29.121094 341.542969 C 30.023438 342.539062 30.949219 343.511719 31.902344 344.464844 C 32.855469 345.417969 33.828125 346.34375 34.828125 347.25 C 35.824219 348.152344 36.84375 349.03125 37.882812 349.886719 C 38.921875 350.738281 39.984375 351.566406 41.0625 352.371094 C 42.144531 353.171875 43.246094 353.945312 44.363281 354.695312 C 45.484375 355.441406 46.617188 356.164062 47.773438 356.855469 C 48.925781 357.546875 50.097656 358.210938 51.285156 358.847656 C 52.472656 359.480469 53.671875 360.085938 54.890625 360.664062 C 56.105469 361.238281 57.335938 361.785156 58.578125 362.300781 C 59.820312 362.816406 61.078125 363.300781 62.34375 363.757812 C 63.609375 364.210938 64.886719 364.632812 66.175781 365.027344 C 67.464844 365.417969 68.761719 365.777344 70.066406 366.105469 C 71.371094 366.433594 72.683594 366.730469 74.003906 366.992188 C 75.324219 367.257812 76.648438 367.488281 77.980469 367.6875 C 79.3125 367.886719 80.644531 368.050781 81.984375 368.183594 C 83.324219 368.320312 84.667969 368.417969 86.011719 368.488281 C 87.355469 368.554688 88.699219 368.589844 90.046875 368.589844 L 286.324219 368.589844 C 287.671875 368.589844 289.015625 368.554688 290.359375 368.488281 C 291.703125 368.417969 293.046875 368.320312 294.386719 368.183594 C 295.726562 368.050781 297.058594 367.886719 298.390625 367.6875 C 299.722656 367.488281 301.046875 367.257812 302.367188 366.992188 C 303.6875 366.730469 305 366.433594 306.304688 366.105469 C 307.609375 365.777344 308.90625 365.417969 310.195312 365.027344 C 311.484375 364.632812 312.761719 364.210938 314.027344 363.757812 C 315.292969 363.300781 316.550781 362.816406 317.792969 362.300781 C 319.035156 361.785156 320.265625 361.238281 321.480469 360.664062 C 322.699219 360.085938 323.898438 359.480469 325.085938 358.847656 C 326.273438 358.210938 327.445312 357.546875 328.597656 356.855469 C 329.75 356.164062 330.886719 355.441406 332.007812 354.695312 C 333.125 353.945312 334.226562 353.171875 335.308594 352.371094 C 336.386719 351.566406 337.449219 350.738281 338.488281 349.886719 C 339.527344 349.03125 340.546875 348.152344 341.542969 347.25 C 342.542969 346.34375 343.515625 345.417969 344.46875 344.464844 C 345.417969 343.511719 346.347656 342.539062 347.25 341.542969 C 348.15625 340.542969 349.035156 339.527344 349.886719 338.484375 C 350.742188 337.445312 351.570312 336.382812 352.371094 335.304688 C 353.175781 334.222656 353.949219 333.121094 354.699219 332.003906 C 355.445312 330.886719 356.164062 329.75 356.859375 328.59375 C 357.550781 327.441406 358.214844 326.269531 358.847656 325.082031 C 359.484375 323.894531 360.089844 322.695312 360.664062 321.476562 C 361.242188 320.261719 361.789062 319.03125 362.304688 317.789062 C 362.820312 316.546875 363.304688 315.289062 363.757812 314.023438 C 364.210938 312.757812 364.636719 311.480469 365.027344 310.191406 C 365.417969 308.902344 365.777344 307.605469 366.105469 306.300781 C 366.433594 304.996094 366.730469 303.683594 366.996094 302.363281 C 367.257812 301.042969 367.488281 299.71875 367.6875 298.386719 C 367.886719 297.054688 368.050781 295.71875 368.1875 294.382812 C 368.320312 293.042969 368.417969 291.699219 368.488281 290.355469 C 368.554688 289.011719 368.589844 287.667969 368.589844 286.320312 L 368.589844 90.050781 C 368.589844 88.703125 368.554688 87.359375 368.488281 86.015625 C 368.417969 84.671875 368.320312 83.328125 368.1875 81.988281 C 368.050781 80.652344 367.886719 79.316406 367.6875 77.984375 C 367.488281 76.652344 367.257812 75.328125 366.996094 74.007812 C 366.730469 72.6875 366.433594 71.375 366.105469 70.070312 C 365.777344 68.765625 365.417969 67.46875 365.027344 66.179688 C 364.636719 64.890625 364.210938 63.613281 363.757812 62.347656 C 363.304688 61.082031 362.820312 59.824219 362.304688 58.582031 C 361.789062 57.339844 361.242188 56.109375 360.664062 54.894531 C 360.089844 53.675781 359.484375 52.476562 358.847656 51.289062 C 358.214844 50.101562 357.550781 48.929688 356.859375 47.777344 C 356.164062 46.621094 355.445312 45.484375 354.699219 44.367188 C 353.949219 43.25 353.175781 42.148438 352.371094 41.066406 C 351.570312 39.988281 350.742188 38.925781 349.886719 37.886719 C 349.035156 36.84375 348.15625 35.828125 347.25 34.828125 C 346.347656 33.832031 345.417969 32.859375 344.46875 31.90625 C 343.515625 30.953125 342.542969 30.027344 341.542969 29.121094 C 340.546875 28.21875 339.527344 27.339844 338.488281 26.484375 C 337.449219 25.632812 336.386719 24.804688 335.308594 24 C 334.226562 23.199219 333.125 22.425781 332.007812 21.675781 C 330.886719 20.929688 329.75 20.207031 328.597656 19.515625 C 327.445312 18.824219 326.273438 18.160156 325.085938 17.523438 C 323.898438 16.890625 322.699219 16.285156 321.480469 15.707031 C 320.265625 15.132812 319.035156 14.585938 317.792969 14.070312 C 316.550781 13.554688 315.292969 13.070312 314.027344 12.613281 C 312.761719 12.160156 311.484375 11.738281 310.195312 11.34375 C 308.90625 10.953125 307.609375 10.59375 306.304688 10.265625 C 305 9.9375 303.6875 9.640625 302.367188 9.378906 C 301.046875 9.113281 299.722656 8.882812 298.390625 8.683594 C 297.058594 8.484375 295.726562 8.320312 294.386719 8.1875 C 293.046875 8.050781 291.703125 7.953125 290.359375 7.882812 C 289.015625 7.816406 287.671875 7.78125 286.324219 7.78125 Z M 350.460938 286.320312 C 350.457031 287.371094 350.429688 288.417969 350.378906 289.464844 C 350.324219 290.515625 350.246094 291.5625 350.144531 292.605469 C 350.039062 293.648438 349.910156 294.691406 349.757812 295.726562 C 349.601562 296.765625 349.421875 297.800781 349.214844 298.828125 C 349.011719 299.855469 348.78125 300.878906 348.523438 301.898438 C 348.269531 302.914062 347.988281 303.925781 347.683594 304.929688 C 347.378906 305.933594 347.046875 306.929688 346.691406 307.917969 C 346.339844 308.90625 345.960938 309.882812 345.558594 310.855469 C 345.15625 311.824219 344.730469 312.78125 344.28125 313.730469 C 343.832031 314.679688 343.359375 315.617188 342.867188 316.539062 C 342.371094 317.464844 341.855469 318.378906 341.3125 319.277344 C 340.773438 320.179688 340.214844 321.0625 339.628906 321.9375 C 339.046875 322.808594 338.441406 323.667969 337.816406 324.507812 C 337.191406 325.351562 336.546875 326.179688 335.878906 326.988281 C 335.214844 327.800781 334.53125 328.59375 333.824219 329.371094 C 333.121094 330.148438 332.398438 330.910156 331.65625 331.652344 C 330.914062 332.394531 330.152344 333.117188 329.375 333.820312 C 328.597656 334.527344 327.804688 335.210938 326.992188 335.878906 C 326.183594 336.542969 325.355469 337.1875 324.511719 337.816406 C 323.671875 338.441406 322.8125 339.042969 321.941406 339.628906 C 321.066406 340.210938 320.183594 340.773438 319.28125 341.3125 C 318.382812 341.851562 317.46875 342.371094 316.542969 342.863281 C 315.621094 343.359375 314.683594 343.832031 313.734375 344.28125 C 312.785156 344.730469 311.828125 345.15625 310.859375 345.558594 C 309.886719 345.960938 308.910156 346.335938 307.921875 346.691406 C 306.933594 347.046875 305.9375 347.375 304.933594 347.679688 C 303.929688 347.988281 302.921875 348.265625 301.902344 348.523438 C 300.882812 348.777344 299.859375 349.007812 298.832031 349.214844 C 297.804688 349.421875 296.769531 349.601562 295.730469 349.753906 C 294.695312 349.910156 293.652344 350.039062 292.609375 350.144531 C 291.566406 350.246094 290.519531 350.324219 289.472656 350.378906 C 288.421875 350.429688 287.375 350.457031 286.324219 350.460938 L 90.046875 350.460938 C 88.996094 350.457031 87.949219 350.429688 86.898438 350.378906 C 85.851562 350.324219 84.804688 350.246094 83.761719 350.144531 C 82.71875 350.039062 81.675781 349.910156 80.640625 349.753906 C 79.601562 349.601562 78.566406 349.421875 77.539062 349.214844 C 76.507812 349.007812 75.488281 348.777344 74.46875 348.523438 C 73.449219 348.265625 72.441406 347.988281 71.4375 347.679688 C 70.433594 347.375 69.4375 347.046875 68.449219 346.691406 C 67.460938 346.335938 66.484375 345.960938 65.511719 345.558594 C 64.542969 345.15625 63.585938 344.730469 62.636719 344.28125 C 61.6875 343.832031 60.75 343.359375 59.828125 342.863281 C 58.902344 342.371094 57.988281 341.851562 57.089844 341.3125 C 56.1875 340.773438 55.304688 340.210938 54.429688 339.628906 C 53.558594 339.042969 52.699219 338.441406 51.859375 337.816406 C 51.015625 337.1875 50.1875 336.542969 49.378906 335.878906 C 48.566406 335.210938 47.773438 334.527344 46.996094 333.820312 C 46.21875 333.117188 45.457031 332.394531 44.714844 331.652344 C 43.972656 330.910156 43.25 330.148438 42.546875 329.371094 C 41.839844 328.59375 41.15625 327.800781 40.492188 326.988281 C 39.824219 326.179688 39.179688 325.351562 38.554688 324.507812 C 37.929688 323.667969 37.324219 322.808594 36.742188 321.9375 C 36.15625 321.0625 35.597656 320.179688 35.058594 319.277344 C 34.515625 318.378906 34 317.464844 33.503906 316.539062 C 33.007812 315.617188 32.539062 314.679688 32.089844 313.730469 C 31.640625 312.78125 31.214844 311.824219 30.8125 310.855469 C 30.410156 309.882812 30.03125 308.90625 29.679688 307.917969 C 29.324219 306.929688 28.992188 305.933594 28.6875 304.929688 C 28.382812 303.925781 28.101562 302.914062 27.847656 301.898438 C 27.589844 300.878906 27.359375 299.855469 27.15625 298.828125 C 26.949219 297.800781 26.769531 296.765625 26.613281 295.726562 C 26.460938 294.691406 26.332031 293.648438 26.226562 292.605469 C 26.125 291.5625 26.042969 290.515625 25.992188 289.464844 C 25.941406 288.417969 25.914062 287.371094 25.910156 286.320312 L 25.910156 90.050781 C 25.914062 89 25.941406 87.953125 25.992188 86.90625 C 26.042969 85.855469 26.125 84.808594 26.226562 83.765625 C 26.332031 82.722656 26.460938 81.679688 26.613281 80.644531 C 26.769531 79.605469 26.949219 78.570312 27.15625 77.542969 C 27.359375 76.515625 27.589844 75.492188 27.847656 74.472656 C 28.101562 73.457031 28.382812 72.445312 28.6875 71.441406 C 28.992188 70.4375 29.324219 69.441406 29.679688 68.453125 C 30.03125 67.464844 30.410156 66.488281 30.8125 65.515625 C 31.214844 64.546875 31.640625 63.589844 32.089844 62.640625 C 32.539062 61.691406 33.007812 60.753906 33.503906 59.832031 C 34 58.90625 34.515625 57.992188 35.058594 57.09375 C 35.597656 56.191406 36.15625 55.308594 36.742188 54.433594 C 37.324219 53.5625 37.929688 52.703125 38.554688 51.863281 C 39.179688 51.019531 39.824219 50.191406 40.492188 49.382812 C 41.15625 48.570312 41.839844 47.777344 42.546875 47 C 43.25 46.222656 43.972656 45.460938 44.714844 44.71875 C 45.457031 43.976562 46.21875 43.253906 46.996094 42.550781 C 47.773438 41.84375 48.566406 41.160156 49.378906 40.492188 C 50.1875 39.828125 51.015625 39.183594 51.859375 38.554688 C 52.699219 37.929688 53.558594 37.328125 54.429688 36.742188 C 55.304688 36.160156 56.1875 35.597656 57.089844 35.058594 C 57.988281 34.519531 58.902344 34 59.828125 33.507812 C 60.75 33.011719 61.6875 32.539062 62.636719 32.089844 C 63.585938 31.640625 64.542969 31.214844 65.511719 30.8125 C 66.484375 30.410156 67.460938 30.035156 68.449219 29.679688 C 69.4375 29.324219 70.433594 28.996094 71.4375 28.691406 C 72.441406 28.382812 73.449219 28.105469 74.46875 27.847656 C 75.488281 27.59375 76.507812 27.363281 77.539062 27.15625 C 78.566406 26.949219 79.601562 26.769531 80.640625 26.617188 C 81.675781 26.460938 82.71875 26.332031 83.761719 26.226562 C 84.804688 26.125 85.851562 26.046875 86.898438 25.992188 C 87.949219 25.941406 88.996094 25.914062 90.046875 25.910156 L 286.324219 25.910156 C 287.375 25.914062 288.421875 25.941406 289.472656 25.992188 C 290.519531 26.046875 291.566406 26.125 292.609375 26.226562 C 293.652344 26.332031 294.695312 26.460938 295.730469 26.617188 C 296.769531 26.769531 297.804688 26.949219 298.832031 27.15625 C 299.859375 27.363281 300.882812 27.59375 301.902344 27.847656 C 302.921875 28.105469 303.929688 28.382812 304.933594 28.691406 C 305.9375 28.996094 306.933594 29.324219 307.921875 29.679688 C 308.910156 30.035156 309.886719 30.410156 310.859375 30.8125 C 311.828125 31.214844 312.785156 31.640625 313.734375 32.089844 C 314.683594 32.539062 315.621094 33.011719 316.542969 33.507812 C 317.46875 34 318.382812 34.519531 319.28125 35.058594 C 320.183594 35.597656 321.066406 36.160156 321.941406 36.742188 C 322.8125 37.328125 323.671875 37.929688 324.511719 38.554688 C 325.355469 39.183594 326.183594 39.828125 326.992188 40.492188 C 327.804688 41.160156 328.597656 41.84375 329.375 42.550781 C 330.152344 43.253906 330.914062 43.976562 331.65625 44.71875 C 332.398438 45.460938 333.121094 46.222656 333.824219 47 C 334.53125 47.777344 335.214844 48.570312 335.878906 49.382812 C 336.546875 50.191406 337.191406 51.019531 337.816406 51.863281 C 338.441406 52.703125 339.046875 53.5625 339.628906 54.433594 C 340.214844 55.308594 340.773438 56.191406 341.3125 57.09375 C 341.855469 57.992188 342.371094 58.90625 342.867188 59.832031 C 343.359375 60.753906 343.832031 61.691406 344.28125 62.640625 C 344.730469 63.589844 345.15625 64.546875 345.558594 65.515625 C 345.960938 66.488281 346.339844 67.464844 346.691406 68.453125 C 347.046875 69.441406 347.378906 70.4375 347.683594 71.441406 C 347.988281 72.445312 348.269531 73.457031 348.523438 74.472656 C 348.78125 75.492188 349.011719 76.515625 349.214844 77.542969 C 349.421875 78.570312 349.601562 79.605469 349.757812 80.644531 C 349.910156 81.679688 350.039062 82.722656 350.144531 83.765625 C 350.246094 84.808594 350.324219 85.855469 350.378906 86.90625 C 350.429688 87.953125 350.457031 89 350.460938 90.050781 Z M 350.460938 286.320312 " fill-opacity="1" fill-rule="nonzero"/></g><path fill="#606060" d="M 315.09375 86.671875 C 315.09375 87.265625 315.066406 87.859375 315.007812 88.449219 C 314.949219 89.042969 314.863281 89.628906 314.746094 90.210938 C 314.632812 90.792969 314.488281 91.367188 314.316406 91.9375 C 314.140625 92.503906 313.941406 93.0625 313.714844 93.613281 C 313.488281 94.160156 313.234375 94.699219 312.953125 95.222656 C 312.675781 95.746094 312.367188 96.253906 312.039062 96.75 C 311.710938 97.242188 311.355469 97.71875 310.980469 98.179688 C 310.601562 98.636719 310.203125 99.078125 309.785156 99.496094 C 309.363281 99.917969 308.925781 100.316406 308.464844 100.691406 C 308.003906 101.070312 307.527344 101.421875 307.035156 101.753906 C 306.542969 102.082031 306.03125 102.386719 305.507812 102.667969 C 304.984375 102.945312 304.449219 103.199219 303.898438 103.429688 C 303.351562 103.65625 302.792969 103.855469 302.222656 104.027344 C 301.65625 104.199219 301.082031 104.34375 300.496094 104.460938 C 299.914062 104.574219 299.328125 104.664062 298.738281 104.722656 C 298.144531 104.78125 297.554688 104.808594 296.960938 104.808594 C 296.367188 104.808594 295.773438 104.78125 295.183594 104.722656 C 294.589844 104.664062 294.003906 104.574219 293.421875 104.460938 C 292.839844 104.34375 292.265625 104.199219 291.695312 104.027344 C 291.128906 103.855469 290.570312 103.65625 290.019531 103.429688 C 289.472656 103.199219 288.933594 102.945312 288.410156 102.667969 C 287.886719 102.386719 287.378906 102.082031 286.882812 101.753906 C 286.390625 101.421875 285.914062 101.070312 285.453125 100.691406 C 284.996094 100.316406 284.554688 99.917969 284.136719 99.496094 C 283.714844 99.078125 283.316406 98.636719 282.941406 98.179688 C 282.5625 97.71875 282.210938 97.242188 281.878906 96.75 C 281.550781 96.253906 281.246094 95.746094 280.964844 95.222656 C 280.6875 94.699219 280.433594 94.160156 280.203125 93.613281 C 279.976562 93.0625 279.777344 92.503906 279.605469 91.9375 C 279.433594 91.367188 279.289062 90.792969 279.171875 90.210938 C 279.058594 89.628906 278.96875 89.042969 278.910156 88.449219 C 278.855469 87.859375 278.824219 87.265625 278.824219 86.671875 C 278.824219 86.078125 278.855469 85.488281 278.910156 84.894531 C 278.96875 84.304688 279.058594 83.71875 279.171875 83.136719 C 279.289062 82.550781 279.433594 81.976562 279.605469 81.410156 C 279.777344 80.839844 279.976562 80.28125 280.203125 79.734375 C 280.433594 79.183594 280.6875 78.648438 280.964844 78.125 C 281.246094 77.601562 281.550781 77.089844 281.878906 76.597656 C 282.210938 76.105469 282.5625 75.628906 282.941406 75.167969 C 283.316406 74.707031 283.714844 74.269531 284.136719 73.847656 C 284.554688 73.429688 284.996094 73.03125 285.453125 72.652344 C 285.914062 72.277344 286.390625 71.925781 286.882812 71.59375 C 287.378906 71.265625 287.886719 70.957031 288.410156 70.679688 C 288.933594 70.398438 289.472656 70.144531 290.019531 69.917969 C 290.570312 69.691406 291.128906 69.492188 291.695312 69.320312 C 292.265625 69.144531 292.839844 69 293.421875 68.886719 C 294.003906 68.769531 294.589844 68.683594 295.183594 68.625 C 295.773438 68.566406 296.367188 68.539062 296.960938 68.539062 C 297.554688 68.539062 298.144531 68.566406 298.738281 68.625 C 299.328125 68.683594 299.914062 68.769531 300.496094 68.886719 C 301.082031 69 301.65625 69.144531 302.222656 69.320312 C 302.792969 69.492188 303.351562 69.691406 303.898438 69.917969 C 304.449219 70.144531 304.984375 70.398438 305.507812 70.679688 C 306.03125 70.957031 306.542969 71.265625 307.035156 71.59375 C 307.527344 71.925781 308.003906 72.277344 308.464844 72.652344 C 308.925781 73.03125 309.363281 73.429688 309.785156 73.847656 C 310.203125 74.269531 310.601562 74.707031 310.980469 75.167969 C 311.355469 75.628906 311.710938 76.105469 312.039062 76.597656 C 312.367188 77.089844 312.675781 77.601562 312.953125 78.125 C 313.234375 78.648438 313.488281 79.183594 313.714844 79.734375 C 313.941406 80.28125 314.140625 80.839844 314.316406 81.410156 C 314.488281 81.976562 314.632812 82.550781 314.746094 83.136719 C 314.863281 83.71875 314.949219 84.304688 315.007812 84.894531 C 315.066406 85.488281 315.09375 86.078125 315.09375 86.671875 Z M 315.09375 86.671875 " fill-opacity="1" fill-rule="nonzero"/><path fill="#606060" d="M 188.183594 80.984375 C 186.429688 80.984375 184.679688 81.027344 182.925781 81.113281 C 181.171875 81.199219 179.425781 81.328125 177.679688 81.5 C 175.933594 81.671875 174.191406 81.886719 172.457031 82.144531 C 170.722656 82.402344 168.992188 82.699219 167.273438 83.042969 C 165.550781 83.386719 163.839844 83.769531 162.136719 84.195312 C 160.4375 84.621094 158.746094 85.089844 157.066406 85.597656 C 155.386719 86.109375 153.722656 86.660156 152.070312 87.25 C 150.417969 87.839844 148.78125 88.472656 147.164062 89.144531 C 145.542969 89.816406 143.9375 90.527344 142.351562 91.277344 C 140.765625 92.027344 139.199219 92.816406 137.652344 93.640625 C 136.105469 94.46875 134.578125 95.332031 133.074219 96.234375 C 131.570312 97.136719 130.085938 98.074219 128.628906 99.050781 C 127.171875 100.023438 125.738281 101.035156 124.328125 102.078125 C 122.917969 103.125 121.535156 104.203125 120.179688 105.316406 C 118.824219 106.429688 117.496094 107.574219 116.195312 108.753906 C 114.894531 109.933594 113.625 111.140625 112.382812 112.382812 C 111.144531 113.621094 109.933594 114.894531 108.757812 116.191406 C 107.578125 117.492188 106.433594 118.820312 105.320312 120.175781 C 104.207031 121.535156 103.128906 122.917969 102.082031 124.324219 C 101.039062 125.734375 100.027344 127.167969 99.054688 128.628906 C 98.078125 130.085938 97.140625 131.566406 96.238281 133.074219 C 95.335938 134.578125 94.472656 136.105469 93.644531 137.652344 C 92.816406 139.199219 92.027344 140.765625 91.277344 142.351562 C 90.527344 143.9375 89.816406 145.539062 89.148438 147.160156 C 88.476562 148.78125 87.84375 150.417969 87.253906 152.070312 C 86.664062 153.722656 86.113281 155.386719 85.601562 157.066406 C 85.09375 158.746094 84.625 160.4375 84.199219 162.136719 C 83.773438 163.839844 83.390625 165.550781 83.046875 167.269531 C 82.703125 168.992188 82.40625 170.71875 82.148438 172.457031 C 81.890625 174.191406 81.675781 175.933594 81.503906 177.679688 C 81.332031 179.425781 81.203125 181.171875 81.117188 182.925781 C 81.03125 184.675781 80.988281 186.429688 80.988281 188.183594 C 80.988281 189.941406 81.03125 191.695312 81.117188 193.445312 C 81.203125 195.199219 81.332031 196.949219 81.503906 198.691406 C 81.675781 200.4375 81.890625 202.179688 82.148438 203.914062 C 82.40625 205.652344 82.703125 207.378906 83.046875 209.101562 C 83.390625 210.820312 83.773438 212.53125 84.199219 214.234375 C 84.625 215.9375 85.09375 217.625 85.601562 219.304688 C 86.113281 220.984375 86.664062 222.648438 87.253906 224.300781 C 87.84375 225.953125 88.476562 227.589844 89.148438 229.210938 C 89.820312 230.832031 90.53125 232.433594 91.28125 234.019531 C 92.03125 235.605469 92.820312 237.171875 93.644531 238.71875 C 94.472656 240.269531 95.335938 241.792969 96.238281 243.300781 C 97.140625 244.804688 98.078125 246.285156 99.054688 247.746094 C 100.027344 249.203125 101.039062 250.636719 102.085938 252.046875 C 103.128906 253.457031 104.207031 254.839844 105.320312 256.195312 C 106.433594 257.550781 107.578125 258.878906 108.757812 260.179688 C 109.9375 261.480469 111.144531 262.75 112.386719 263.988281 C 113.628906 265.230469 114.898438 266.4375 116.195312 267.617188 C 117.496094 268.796875 118.824219 269.941406 120.179688 271.054688 C 121.539062 272.167969 122.921875 273.246094 124.328125 274.292969 C 125.738281 275.335938 127.171875 276.347656 128.632812 277.320312 C 130.089844 278.296875 131.570312 279.234375 133.078125 280.136719 C 134.582031 281.039062 136.109375 281.902344 137.65625 282.730469 C 139.203125 283.558594 140.769531 284.34375 142.355469 285.097656 C 143.941406 285.847656 145.542969 286.554688 147.164062 287.226562 C 148.785156 287.898438 150.421875 288.53125 152.074219 289.121094 C 153.726562 289.710938 155.390625 290.261719 157.070312 290.773438 C 158.75 291.28125 160.441406 291.75 162.140625 292.175781 C 163.84375 292.601562 165.554688 292.984375 167.277344 293.328125 C 168.996094 293.671875 170.722656 293.96875 172.460938 294.226562 C 174.195312 294.484375 175.9375 294.699219 177.683594 294.871094 C 179.429688 295.042969 181.175781 295.171875 182.929688 295.257812 C 184.683594 295.34375 186.433594 295.386719 188.191406 295.386719 C 189.945312 295.386719 191.699219 295.34375 193.449219 295.257812 C 195.203125 295.171875 196.953125 295.042969 198.699219 294.871094 C 200.445312 294.699219 202.183594 294.484375 203.917969 294.226562 C 205.65625 293.96875 207.382812 293.671875 209.105469 293.328125 C 210.824219 292.984375 212.535156 292.601562 214.238281 292.175781 C 215.941406 291.75 217.628906 291.28125 219.308594 290.773438 C 220.988281 290.261719 222.652344 289.710938 224.304688 289.121094 C 225.957031 288.53125 227.59375 287.898438 229.214844 287.226562 C 230.835938 286.554688 232.4375 285.84375 234.023438 285.09375 C 235.609375 284.34375 237.175781 283.554688 238.726562 282.730469 C 240.273438 281.902344 241.796875 281.039062 243.304688 280.136719 C 244.808594 279.234375 246.289062 278.296875 247.75 277.320312 C 249.207031 276.347656 250.640625 275.335938 252.050781 274.292969 C 253.460938 273.246094 254.84375 272.167969 256.199219 271.054688 C 257.554688 269.941406 258.882812 268.796875 260.183594 267.617188 C 261.484375 266.4375 262.753906 265.230469 263.992188 263.988281 C 265.234375 262.75 266.445312 261.476562 267.621094 260.179688 C 268.800781 258.878906 269.945312 257.550781 271.058594 256.195312 C 272.171875 254.835938 273.25 253.453125 274.296875 252.046875 C 275.339844 250.636719 276.351562 249.203125 277.324219 247.742188 C 278.300781 246.285156 279.238281 244.804688 280.140625 243.296875 C 281.042969 241.792969 281.90625 240.265625 282.734375 238.71875 C 283.5625 237.171875 284.351562 235.605469 285.101562 234.019531 C 285.851562 232.433594 286.5625 230.832031 287.230469 229.210938 C 287.902344 227.589844 288.535156 225.953125 289.125 224.300781 C 289.71875 222.648438 290.265625 220.984375 290.777344 219.304688 C 291.285156 217.625 291.753906 215.933594 292.179688 214.234375 C 292.605469 212.53125 292.992188 210.820312 293.332031 209.097656 C 293.675781 207.378906 293.976562 205.652344 294.230469 203.914062 C 294.488281 202.179688 294.703125 200.4375 294.875 198.691406 C 295.046875 196.945312 295.175781 195.199219 295.261719 193.445312 C 295.347656 191.695312 295.390625 189.941406 295.394531 188.183594 C 295.390625 186.429688 295.34375 184.679688 295.257812 182.925781 C 295.167969 181.175781 295.039062 179.425781 294.863281 177.679688 C 294.691406 175.9375 294.476562 174.195312 294.214844 172.460938 C 293.957031 170.726562 293.65625 169 293.3125 167.28125 C 292.96875 165.558594 292.582031 163.847656 292.15625 162.148438 C 291.726562 160.445312 291.257812 158.757812 290.746094 157.078125 C 290.238281 155.402344 289.6875 153.738281 289.09375 152.085938 C 288.503906 150.433594 287.871094 148.800781 287.199219 147.179688 C 286.527344 145.558594 285.8125 143.957031 285.0625 142.371094 C 284.3125 140.785156 283.523438 139.222656 282.695312 137.675781 C 281.867188 136.128906 281.003906 134.601562 280.101562 133.097656 C 279.199219 131.59375 278.261719 130.113281 277.285156 128.65625 C 276.3125 127.199219 275.300781 125.765625 274.253906 124.355469 C 273.210938 122.949219 272.132812 121.566406 271.019531 120.210938 C 269.90625 118.855469 268.761719 117.527344 267.582031 116.226562 C 266.402344 114.925781 265.195312 113.65625 263.953125 112.417969 C 262.714844 111.175781 261.445312 109.96875 260.144531 108.789062 C 258.84375 107.613281 257.519531 106.46875 256.164062 105.355469 C 254.808594 104.242188 253.425781 103.164062 252.015625 102.117188 C 250.609375 101.070312 249.175781 100.0625 247.714844 99.085938 C 246.257812 98.113281 244.777344 97.175781 243.273438 96.273438 C 241.769531 95.371094 240.242188 94.503906 238.695312 93.675781 C 237.152344 92.851562 235.585938 92.0625 234 91.308594 C 232.414062 90.558594 230.8125 89.847656 229.191406 89.175781 C 227.570312 88.503906 225.9375 87.871094 224.285156 87.28125 C 222.632812 86.6875 220.96875 86.136719 219.292969 85.625 C 217.613281 85.117188 215.925781 84.648438 214.222656 84.21875 C 212.523438 83.792969 210.8125 83.40625 209.089844 83.0625 C 207.371094 82.71875 205.644531 82.417969 203.910156 82.160156 C 202.175781 81.898438 200.433594 81.683594 198.691406 81.511719 C 196.945312 81.335938 195.195312 81.207031 193.445312 81.117188 C 191.691406 81.03125 189.9375 80.984375 188.183594 80.984375 Z M 188.183594 277.253906 C 186.726562 277.253906 185.269531 277.21875 183.816406 277.144531 C 182.359375 277.074219 180.90625 276.96875 179.457031 276.824219 C 178.003906 276.679688 176.558594 276.503906 175.117188 276.289062 C 173.675781 276.074219 172.238281 275.824219 170.808594 275.542969 C 169.378906 275.257812 167.957031 274.9375 166.542969 274.582031 C 165.128906 274.230469 163.726562 273.839844 162.332031 273.417969 C 160.9375 272.996094 159.550781 272.539062 158.179688 272.046875 C 156.808594 271.554688 155.449219 271.03125 154.101562 270.472656 C 152.753906 269.914062 151.421875 269.324219 150.105469 268.703125 C 148.785156 268.078125 147.484375 267.421875 146.199219 266.734375 C 144.914062 266.046875 143.644531 265.332031 142.394531 264.582031 C 141.144531 263.832031 139.914062 263.050781 138.703125 262.242188 C 137.492188 261.433594 136.300781 260.59375 135.128906 259.726562 C 133.957031 258.855469 132.808594 257.960938 131.683594 257.035156 C 130.554688 256.109375 129.453125 255.160156 128.371094 254.179688 C 127.292969 253.203125 126.234375 252.195312 125.207031 251.164062 C 124.175781 250.136719 123.167969 249.078125 122.191406 248 C 121.210938 246.917969 120.261719 245.816406 119.335938 244.6875 C 118.410156 243.5625 117.515625 242.414062 116.644531 241.242188 C 115.777344 240.070312 114.9375 238.878906 114.128906 237.667969 C 113.320312 236.457031 112.539062 235.226562 111.789062 233.976562 C 111.039062 232.726562 110.320312 231.457031 109.636719 230.171875 C 108.949219 228.886719 108.292969 227.585938 107.667969 226.265625 C 107.046875 224.949219 106.457031 223.617188 105.898438 222.269531 C 105.339844 220.921875 104.816406 219.5625 104.324219 218.191406 C 103.832031 216.820312 103.375 215.433594 102.953125 214.039062 C 102.53125 212.644531 102.140625 211.242188 101.789062 209.828125 C 101.433594 208.414062 101.113281 206.992188 100.828125 205.5625 C 100.546875 204.132812 100.296875 202.695312 100.082031 201.253906 C 99.867188 199.8125 99.691406 198.367188 99.546875 196.914062 C 99.402344 195.464844 99.296875 194.011719 99.226562 192.554688 C 99.152344 191.101562 99.117188 189.644531 99.117188 188.183594 C 99.117188 186.726562 99.152344 185.269531 99.226562 183.816406 C 99.296875 182.359375 99.402344 180.90625 99.546875 179.457031 C 99.691406 178.003906 99.867188 176.558594 100.082031 175.117188 C 100.296875 173.675781 100.546875 172.238281 100.828125 170.808594 C 101.113281 169.378906 101.433594 167.957031 101.789062 166.542969 C 102.140625 165.128906 102.53125 163.726562 102.953125 162.332031 C 103.375 160.9375 103.832031 159.550781 104.324219 158.179688 C 104.816406 156.808594 105.339844 155.449219 105.898438 154.101562 C 106.457031 152.753906 107.046875 151.421875 107.667969 150.105469 C 108.292969 148.785156 108.949219 147.484375 109.636719 146.199219 C 110.320312 144.914062 111.039062 143.644531 111.789062 142.394531 C 112.539062 141.144531 113.320312 139.914062 114.128906 138.703125 C 114.9375 137.492188 115.777344 136.300781 116.644531 135.128906 C 117.515625 133.957031 118.410156 132.808594 119.335938 131.683594 C 120.261719 130.554688 121.210938 129.453125 122.191406 128.371094 C 123.167969 127.292969 124.175781 126.234375 125.207031 125.207031 C 126.234375 124.175781 127.292969 123.167969 128.371094 122.191406 C 129.453125 121.210938 130.554688 120.261719 131.683594 119.335938 C 132.808594 118.410156 133.957031 117.515625 135.128906 116.644531 C 136.300781 115.777344 137.492188 114.9375 138.703125 114.128906 C 139.914062 113.320312 141.144531 112.539062 142.394531 111.789062 C 143.644531 111.039062 144.914062 110.320312 146.199219 109.636719 C 147.484375 108.949219 148.785156 108.292969 150.105469 107.667969 C 151.421875 107.046875 152.753906 106.457031 154.101562 105.898438 C 155.449219 105.339844 156.808594 104.816406 158.179688 104.324219 C 159.550781 103.832031 160.9375 103.375 162.332031 102.953125 C 163.726562 102.53125 165.128906 102.140625 166.542969 101.789062 C 167.957031 101.433594 169.378906 101.113281 170.808594 100.828125 C 172.238281 100.546875 173.675781 100.296875 175.117188 100.082031 C 176.558594 99.867188 178.003906 99.691406 179.457031 99.546875 C 180.90625 99.402344 182.359375 99.296875 183.816406 99.226562 C 185.269531 99.152344 186.726562 99.117188 188.183594 99.117188 C 189.644531 99.117188 191.101562 99.152344 192.554688 99.226562 C 194.011719 99.296875 195.464844 99.402344 196.914062 99.546875 C 198.367188 99.691406 199.8125 99.867188 201.253906 100.082031 C 202.695312 100.296875 204.132812 100.546875 205.5625 100.828125 C 206.992188 101.113281 208.414062 101.433594 209.828125 101.789062 C 211.242188 102.140625 212.644531 102.53125 214.039062 102.953125 C 215.433594 103.375 216.820312 103.832031 218.191406 104.324219 C 219.5625 104.816406 220.921875 105.339844 222.269531 105.898438 C 223.617188 106.457031 224.949219 107.046875 226.265625 107.667969 C 227.585938 108.292969 228.886719 108.949219 230.171875 109.636719 C 231.457031 110.324219 232.726562 111.039062 233.976562 111.789062 C 235.226562 112.539062 236.457031 113.320312 237.667969 114.128906 C 238.878906 114.9375 240.070312 115.777344 241.242188 116.644531 C 242.414062 117.515625 243.5625 118.410156 244.6875 119.335938 C 245.816406 120.261719 246.917969 121.210938 248 122.191406 C 249.078125 123.167969 250.136719 124.175781 251.164062 125.207031 C 252.195312 126.234375 253.203125 127.292969 254.179688 128.371094 C 255.160156 129.453125 256.109375 130.554688 257.035156 131.683594 C 257.960938 132.808594 258.855469 133.957031 259.726562 135.128906 C 260.59375 136.300781 261.433594 137.492188 262.242188 138.703125 C 263.050781 139.914062 263.832031 141.144531 264.582031 142.394531 C 265.332031 143.644531 266.046875 144.914062 266.734375 146.199219 C 267.421875 147.484375 268.078125 148.785156 268.703125 150.105469 C 269.324219 151.421875 269.914062 152.753906 270.472656 154.101562 C 271.03125 155.449219 271.554688 156.808594 272.046875 158.179688 C 272.539062 159.550781 272.996094 160.9375 273.417969 162.332031 C 273.839844 163.726562 274.230469 165.128906 274.582031 166.542969 C 274.9375 167.957031 275.257812 169.378906 275.542969 170.808594 C 275.824219 172.238281 276.074219 173.675781 276.289062 175.117188 C 276.503906 176.558594 276.679688 178.003906 276.824219 179.457031 C 276.96875 180.90625 277.074219 182.359375 277.144531 183.816406 C 277.21875 185.269531 277.253906 186.726562 277.253906 188.183594 C 277.25 189.644531 277.214844 191.097656 277.140625 192.554688 C 277.066406 194.007812 276.960938 195.460938 276.816406 196.914062 C 276.671875 198.363281 276.492188 199.808594 276.277344 201.25 C 276.058594 202.691406 275.808594 204.125 275.523438 205.554688 C 275.238281 206.984375 274.917969 208.40625 274.5625 209.816406 C 274.207031 211.230469 273.820312 212.636719 273.394531 214.027344 C 272.972656 215.421875 272.511719 216.804688 272.019531 218.179688 C 271.527344 219.550781 271.003906 220.910156 270.445312 222.253906 C 269.886719 223.601562 269.296875 224.933594 268.671875 226.25 C 268.050781 227.566406 267.394531 228.867188 266.707031 230.152344 C 266.019531 231.4375 265.300781 232.703125 264.550781 233.953125 C 263.800781 235.203125 263.019531 236.433594 262.210938 237.644531 C 261.402344 238.855469 260.5625 240.046875 259.695312 241.21875 C 258.824219 242.386719 257.929688 243.535156 257.003906 244.660156 C 256.078125 245.789062 255.128906 246.890625 254.148438 247.972656 C 253.171875 249.050781 252.167969 250.105469 251.136719 251.136719 C 250.105469 252.167969 249.050781 253.171875 247.972656 254.148438 C 246.890625 255.128906 245.789062 256.078125 244.660156 257.003906 C 243.535156 257.929688 242.386719 258.824219 241.21875 259.695312 C 240.046875 260.5625 238.855469 261.402344 237.644531 262.210938 C 236.433594 263.019531 235.203125 263.800781 233.953125 264.550781 C 232.703125 265.300781 231.4375 266.019531 230.152344 266.707031 C 228.867188 267.394531 227.566406 268.050781 226.25 268.671875 C 224.933594 269.296875 223.601562 269.886719 222.253906 270.445312 C 220.910156 271.003906 219.550781 271.527344 218.179688 272.019531 C 216.804688 272.511719 215.421875 272.972656 214.027344 273.394531 C 212.636719 273.820312 211.230469 274.207031 209.816406 274.5625 C 208.40625 274.917969 206.984375 275.238281 205.554688 275.523438 C 204.125 275.808594 202.691406 276.058594 201.25 276.277344 C 199.808594 276.492188 198.363281 276.671875 196.914062 276.816406 C 195.460938 276.960938 194.007812 277.066406 192.554688 277.140625 C 191.097656 277.214844 189.644531 277.25 188.183594 277.253906 Z M 188.183594 277.253906 " fill-opacity="1" fill-rule="nonzero"/></svg>