<svg xmlns="http://www.w3.org/2000/svg" xmlns:xlink="http://www.w3.org/1999/xlink" width="500" zoomAndPan="magnify" viewBox="0 0 375 374.999991" height="500" preserveAspectRatio="xMidYMid meet" version="1.0"><defs><clipPath id="7688f67f88"><path d="M 11.226562 140 L 374.976562 140 L 374.976562 369 L 11.226562 369 Z M 11.226562 140 " clip-rule="nonzero"/></clipPath></defs><g clip-path="url(#7688f67f88)"><path fill="#606060" d="M 117.085938 140.269531 C 126.929688 140.066406 136.632812 141.152344 146.1875 143.53125 C 155.046875 145.113281 162.320312 148.375 168.851562 152.382812 C 172.085938 154.402344 174.945312 156.855469 177.425781 159.75 C 179.910156 162.644531 181.898438 165.839844 183.402344 169.34375 C 186.8125 177.613281 188.429688 186.21875 188.25 195.160156 C 188.25 206.339844 185.824219 216.125 180.136719 223.394531 C 175.285156 230.664062 167.078125 237.09375 157.472656 242.035156 C 160.542969 242.816406 163.527344 243.855469 166.414062 245.160156 C 169.304688 246.464844 172.058594 248.011719 174.675781 249.800781 C 177.289062 251.589844 179.730469 253.59375 181.996094 255.808594 C 184.261719 258.027344 186.316406 260.421875 188.15625 263 C 194.6875 272.695312 198.695312 284.808594 198.695312 298.414062 C 198.777344 303.445312 198.273438 308.417969 197.1875 313.328125 C 196.097656 318.242188 194.457031 322.960938 192.261719 327.488281 C 190.207031 331.550781 187.679688 335.296875 184.679688 338.71875 C 181.679688 342.144531 178.296875 345.140625 174.539062 347.710938 C 166.59375 352.972656 157.980469 356.703125 148.703125 358.894531 C 139.164062 361.378906 129.460938 362.714844 119.605469 362.902344 L 11.414062 362.902344 L 11.414062 140.269531 Z M 110.558594 230.664062 C 119.417969 230.664062 126.691406 228.242188 132.382812 224.140625 C 138.070312 220.039062 140.496094 212.957031 140.496094 203.917969 C 140.636719 199.421875 139.828125 195.105469 138.070312 190.964844 C 136.484375 187.703125 134.0625 185.375 130.796875 182.855469 C 127.53125 181.273438 124.269531 179.59375 120.257812 178.851562 C 116.246094 178.105469 112.144531 177.917969 107.199219 177.917969 L 60.566406 177.917969 L 60.566406 230.382812 Z M 112.890625 326.183594 C 117.511719 326.097656 122.082031 325.570312 126.601562 324.601562 C 128.601562 324.203125 130.539062 323.601562 132.414062 322.796875 C 134.289062 321.992188 136.058594 320.996094 137.722656 319.816406 C 139.386719 318.636719 140.90625 317.292969 142.285156 315.792969 C 143.664062 314.289062 144.871094 312.660156 145.90625 310.902344 C 147.492188 306.894531 149.171875 302.046875 149.171875 296.363281 C 149.171875 285.179688 145.90625 276.980469 139.472656 271.203125 C 132.941406 266.355469 124.082031 263.933594 113.636719 263.933594 L 60.472656 263.933594 L 60.472656 326.09375 Z M 268.929688 325.253906 C 275.457031 331.777344 285.0625 334.945312 298.027344 334.945312 C 302.148438 335 306.191406 334.472656 310.15625 333.359375 C 314.125 332.25 317.855469 330.605469 321.347656 328.421875 C 324.0625 326.671875 326.453125 324.558594 328.519531 322.078125 C 330.589844 319.597656 332.238281 316.867188 333.472656 313.882812 L 373.109375 313.882812 C 366.582031 333.265625 356.976562 346.964844 344.011719 355.820312 C 330.953125 363.925781 315.75 368.867188 297.097656 368.867188 C 285.09375 368.914062 273.496094 366.773438 262.304688 362.4375 C 257.332031 360.582031 252.65625 358.144531 248.285156 355.132812 C 243.914062 352.121094 239.976562 348.621094 236.472656 344.636719 C 232.699219 340.945312 229.445312 336.84375 226.714844 332.332031 C 223.980469 327.820312 221.855469 323.035156 220.335938 317.984375 C 216.253906 306.753906 214.355469 295.167969 214.644531 283.222656 C 214.644531 271.109375 216.230469 259.925781 220.242188 249.300781 C 224.140625 239.054688 229.800781 229.890625 237.21875 221.8125 C 244.671875 214.203125 253.285156 208.269531 263.050781 204.011719 C 268.453125 201.855469 274.007812 200.230469 279.714844 199.132812 C 285.425781 198.035156 291.1875 197.488281 297.003906 197.488281 C 310.714844 197.488281 322.839844 199.910156 333.378906 205.597656 C 343.917969 211.28125 352.03125 217.710938 358.558594 227.402344 C 365.210938 236.769531 370.0625 246.988281 373.109375 258.0625 C 374.695312 269.246094 375.535156 280.707031 374.695312 293.476562 L 257.734375 293.476562 C 257.664062 296.332031 257.851562 299.167969 258.300781 301.992188 C 258.75 304.8125 259.453125 307.570312 260.410156 310.261719 C 261.363281 312.953125 262.558594 315.535156 263.992188 318.007812 C 265.421875 320.480469 267.070312 322.804688 268.929688 324.972656 Z M 319.855469 240.449219 C 314.257812 234.859375 305.304688 231.597656 294.671875 231.597656 C 287.394531 231.597656 281.613281 233.179688 276.949219 235.601562 C 272.285156 238.027344 268.835938 241.195312 265.757812 244.457031 C 264.3125 246.015625 263.113281 247.746094 262.160156 249.648438 C 261.210938 251.550781 260.542969 253.546875 260.160156 255.640625 C 259.414062 259.554688 258.574219 262.910156 258.574219 266.171875 L 331.324219 266.171875 C 331.128906 263.785156 330.734375 261.433594 330.144531 259.113281 C 329.554688 256.792969 328.777344 254.539062 327.808594 252.351562 C 326.839844 250.160156 325.695312 248.070312 324.375 246.070312 C 323.054688 244.074219 321.582031 242.199219 319.945312 240.449219 Z M 248.96875 155.644531 L 339.441406 155.644531 L 339.441406 177.453125 L 248.96875 177.453125 Z M 248.96875 155.644531 " fill-opacity="1" fill-rule="nonzero"/></g></svg>